<svg width="33" height="33" viewBox="0 0 33 33" fill="none" xmlns="http://www.w3.org/2000/svg">
<circle cx="16.3841" cy="16.0238" r="6.65953" fill="#6D9EEB"/>
<mask id="path-2-inside-1_499_26593" fill="white">
<path d="M26.3017 14.347C27.3716 14.1498 28.4157 14.8599 28.4388 15.9476C28.4759 17.692 28.1395 19.4321 27.4432 21.0485C26.4858 23.2708 24.8908 25.1594 22.86 26.4753C20.8293 27.7912 18.4539 28.4754 16.0343 28.4413C13.6147 28.4072 11.2595 27.6564 9.26665 26.2838C7.27376 24.9112 5.73265 22.9785 4.8382 20.73C3.94375 18.4815 3.73614 16.0183 4.24161 13.6519C4.74708 11.2854 5.94294 9.12198 7.67797 7.43516C8.93987 6.20833 10.4457 5.27368 12.0888 4.68643C13.1132 4.32026 14.1489 5.04263 14.3461 6.11254C14.5432 7.18245 13.8197 8.18908 12.8262 8.63244C11.9408 9.02757 11.1268 9.57698 10.4243 10.2599C9.24793 11.4036 8.43715 12.8704 8.09444 14.4748C7.75173 16.0793 7.89249 17.7493 8.49892 19.2738C9.10535 20.7982 10.1502 22.1086 11.5014 23.0392C12.8525 23.9698 14.4493 24.4789 16.0898 24.502C17.7303 24.5251 19.3408 24.0612 20.7176 23.169C22.0944 22.2769 23.1758 20.9964 23.8249 19.4897C24.2126 18.5899 24.4357 17.6335 24.4892 16.6654C24.5493 15.5791 25.2318 14.5442 26.3017 14.347Z"/>
</mask>
<path d="M26.3017 14.347C27.3716 14.1498 28.4157 14.8599 28.4388 15.9476C28.4759 17.692 28.1395 19.4321 27.4432 21.0485C26.4858 23.2708 24.8908 25.1594 22.86 26.4753C20.8293 27.7912 18.4539 28.4754 16.0343 28.4413C13.6147 28.4072 11.2595 27.6564 9.26665 26.2838C7.27376 24.9112 5.73265 22.9785 4.8382 20.73C3.94375 18.4815 3.73614 16.0183 4.24161 13.6519C4.74708 11.2854 5.94294 9.12198 7.67797 7.43516C8.93987 6.20833 10.4457 5.27368 12.0888 4.68643C13.1132 4.32026 14.1489 5.04263 14.3461 6.11254C14.5432 7.18245 13.8197 8.18908 12.8262 8.63244C11.9408 9.02757 11.1268 9.57698 10.4243 10.2599C9.24793 11.4036 8.43715 12.8704 8.09444 14.4748C7.75173 16.0793 7.89249 17.7493 8.49892 19.2738C9.10535 20.7982 10.1502 22.1086 11.5014 23.0392C12.8525 23.9698 14.4493 24.4789 16.0898 24.502C17.7303 24.5251 19.3408 24.0612 20.7176 23.169C22.0944 22.2769 23.1758 20.9964 23.8249 19.4897C24.2126 18.5899 24.4357 17.6335 24.4892 16.6654C24.5493 15.5791 25.2318 14.5442 26.3017 14.347Z" stroke="#407BFF" stroke-width="3.89621" mask="url(#path-2-inside-1_499_26593)"/>
<circle cx="16.3877" cy="16.0273" r="4.86228" fill="#1C4587"/>
</svg>
